<svg width="36" height="46" viewBox="0 0 36 46" fill="none" xmlns="http://www.w3.org/2000/svg">
<g id="Frame 1321316375">
<path id="Vector" d="M34.4118 1.62354H1.58824C0.711077 1.62354 0 2.35041 0 3.24706V44.3765C0 45.2731 0.711077 46 1.58824 46H34.4118C35.2889 46 36 45.2731 36 44.3765V3.24706C36 2.35041 35.2889 1.62354 34.4118 1.62354Z" fill="#C4C4C4"/>
<path id="Vector_2" d="M32.2956 3.78827H3.70738C2.83022 3.78827 2.11914 4.51515 2.11914 5.4118V42.2118C2.11914 43.1084 2.83022 43.8353 3.70738 43.8353H32.2956C33.1728 43.8353 33.8838 43.1084 33.8838 42.2118V5.4118C33.8838 4.51515 33.1728 3.78827 32.2956 3.78827Z" fill="white"/>
<g id="Group 1321315524">
<path id="Vector_3" d="M18.3018 12.8975C14.769 12.928 11.8541 15.4784 11.885 18.7604C11.8953 20.3963 12.7502 22.0729 14.2849 23.1804L13.8935 25.0704C21.3403 27.194 24.8525 21.8494 24.8216 18.6588C24.7804 15.4175 21.8964 12.8671 18.3018 12.8975ZM18.7962 21.9306L18.7756 21.2702C16.1697 21.26 15.0368 19.6546 15.0265 18.354C15.0162 17.3582 15.7165 16.2913 16.8701 16.2811C17.8486 16.271 18.3327 17.0331 18.3327 17.0331C18.3327 17.0331 18.7447 16.2608 19.8159 16.2507C20.5884 16.2405 21.6184 16.8806 21.639 18.3641C21.6596 19.7562 20.6399 21.2803 18.7962 21.9306Z" fill="#EF413E"/>
<path id="Vector_4" d="M18.8583 24.455L18.7965 21.9351C17.6738 22.3314 16.2421 22.4025 14.553 21.9148L14.2852 23.1951C15.449 24.0283 16.994 24.5465 18.8583 24.455Z" fill="#851619"/>
</g>
<path id="Vector_5" d="M25.9413 0H10.0589C9.18178 0 8.4707 0.726879 8.4707 1.62353V3.78824C8.4707 4.68489 9.18178 5.41176 10.0589 5.41176H25.9413C26.8185 5.41176 27.5295 4.68489 27.5295 3.78824V1.62353C27.5295 0.726879 26.8185 0 25.9413 0Z" fill="#C4C4C4"/>
<path id="Vector_6" d="M20.0291 30.3058H8.38201C7.94366 30.3058 7.58789 30.6695 7.58789 31.1176C7.58789 31.5657 7.94366 31.9294 8.38201 31.9294H20.0291C20.4674 31.9294 20.8232 31.5657 20.8232 31.1176C20.8232 30.6695 20.4674 30.3058 20.0291 30.3058Z" fill="#C4C4C4"/>
<path id="Vector_7" d="M16.3232 36.8H8.38201C7.94366 36.8 7.58789 37.1637 7.58789 37.6118C7.58789 38.0599 7.94366 38.4236 8.38201 38.4236H16.3232C16.7615 38.4236 17.1173 38.0599 17.1173 37.6118C17.1173 37.1637 16.7615 36.8 16.3232 36.8Z" fill="#C4C4C4"/>
<path id="Vector_8" d="M24.2644 33.5529H8.38201C7.94366 33.5529 7.58789 33.9166 7.58789 34.3647C7.58789 34.8128 7.94366 35.1764 8.38201 35.1764H24.2644C24.7027 35.1764 25.0585 34.8128 25.0585 34.3647C25.0585 33.9166 24.7027 33.5529 24.2644 33.5529Z" fill="#C4C4C4"/>
</g>
</svg>
