<svg width="42" height="43" viewBox="0 0 42 43" fill="none" xmlns="http://www.w3.org/2000/svg">
<rect y="0.5" width="42" height="42" rx="10" fill="#EAFCF1"/>
<g clip-path="url(#clip0_1438_1997)">
<path d="M28.9303 12.1801C30.4108 13.8967 31.3067 16.1308 31.3067 18.576C31.3067 23.6164 27.2199 27.7032 22.1795 27.7032H20.8459C15.8055 27.7032 11.7188 23.6164 11.7188 18.576C11.7188 13.1666 16.1041 8.78284 21.5119 8.78284C23.2098 8.78284 24.8076 9.2159 26.2006 9.97572" fill="#919191"/>
<path d="M21.5136 26.9199C15.9667 26.9199 11.4688 30.6189 11.4688 35.181H31.557C31.557 30.6189 27.0606 26.9199 21.5121 26.9199H21.5136Z" fill="#DBDBDB" stroke="#F1F1F1" stroke-width="0.1" stroke-linecap="round" stroke-linejoin="round"/>
<path d="M12.7836 22.7831C12.0582 22.7831 11.4688 22.1953 11.4688 21.4683V19.0106C11.4688 18.2852 12.0566 17.6958 12.7836 17.6958C13.509 17.6958 14.0984 18.2836 14.0984 19.0106V21.4683C14.0984 22.1937 13.5106 22.7831 12.7836 22.7831Z" fill="#FFEFE0"/>
<path d="M31.5558 19.0122C31.5558 18.2861 30.9675 17.6974 30.2418 17.6974C29.5161 17.6974 28.9277 18.2861 28.9277 19.0122V21.4683C28.9277 22.1945 29.5161 22.7831 30.2418 22.7831C30.9675 22.7831 31.5558 22.1945 31.5558 21.4683V19.0122Z" fill="#FFEFE0"/>
<path d="M21.5 35L17.5 27H25.5L21.5 35Z" fill="white"/>
<path d="M14.2609 16.2809C13.548 17.5847 13.1759 19.1012 13.265 20.7116C13.4932 24.8202 16.7795 28.1737 20.8835 28.477C25.7316 28.8366 29.7745 25.0094 29.7745 20.2394C29.7745 18.8042 29.4087 17.4565 28.7646 16.2809H25.5627C22.9878 16.2809 20.5379 15.174 18.8338 13.2432L17.555 14.7534C16.7342 15.7227 15.5304 16.2809 14.2609 16.2809Z" fill="#FFEFE0"/>
<path d="M18.8329 20.8148C18.6788 20.8148 18.5686 20.7559 18.4959 20.6711C18.4217 20.5846 18.3828 20.4667 18.3829 20.3458C18.3829 20.225 18.422 20.107 18.4963 20.0205C18.5691 19.9356 18.6793 19.8768 18.8329 19.8768C18.987 19.8768 19.0974 19.9357 19.1702 20.0205C19.2445 20.107 19.2836 20.2249 19.2836 20.3458C19.2836 20.4666 19.2445 20.5846 19.1702 20.671C19.0974 20.7559 18.987 20.8148 18.8329 20.8148Z" fill="#323232" stroke="#323232" stroke-width="0.156341"/>
<path d="M23.9989 20.7569C23.8448 20.7569 23.7346 20.698 23.6619 20.6132C23.5877 20.5268 23.5488 20.4088 23.5489 20.288C23.549 20.1671 23.5881 20.0491 23.6623 19.9626C23.7351 19.8778 23.8453 19.8189 23.9989 19.8189C24.1531 19.8189 24.2634 19.8778 24.3363 19.9627C24.4105 20.0491 24.4496 20.1671 24.4496 20.2879C24.4496 20.4088 24.4105 20.5267 24.3363 20.6132C24.2634 20.698 24.1531 20.7569 23.9989 20.7569Z" fill="#323232" stroke="#323232" stroke-width="0.156341"/>
<path d="M23.0682 24.1813C23.0682 24.8457 22.3725 25.3851 21.5126 25.3851C20.6527 25.3851 19.957 24.8457 19.957 24.1813" stroke="#323232" stroke-width="0.4" stroke-linecap="round" stroke-linejoin="round"/>
<path d="M21.151 6.46899C18.6793 6.46899 16.6641 8.27316 16.6641 8.27316L18.1978 11.8799H24.1059L25.6396 8.27316C25.6396 8.27316 23.6243 6.46899 21.1526 6.46899H21.151Z" fill="white"/>
<path d="M19.9746 8.96106H22.215" stroke="#919191" stroke-width="0.938044" stroke-linecap="round" stroke-linejoin="round"/>
<path d="M21.1133 10.0977V7.85889" stroke="#919191" stroke-width="0.938044" stroke-linecap="round" stroke-linejoin="round"/>
</g>
<defs>
<clipPath id="clip0_1438_1997">
<rect width="21.0262" height="29.65" fill="white" transform="translate(11 6)"/>
</clipPath>
</defs>
</svg>
