<svg width="46" height="33" viewBox="0 0 46 33" fill="none" xmlns="http://www.w3.org/2000/svg">
<g id="Frame 1321316376">
<g id="&#239;&#167;&#143;&#226;&#145;&#165;&#234;&#189;&#140;&#231;&#148;&#177;&#209;&#136;? ?&#206;&#186;&#235;&#160;&#144; &#239;&#167;&#158;&#234;&#179;&#184;&#234;&#182;&#151;&#229;&#170;&#155;&#234;&#179;&#185;&#236;&#130;&#142; 1">
<path id="Vector" d="M29.836 2.13593L27.9984 0.299524C27.5928 -0.10728 26.9268 -0.0979931 26.5107 0.316947L3.02065 24.5415C2.60455 24.9576 2.59643 25.6236 3.00207 26.0293L4.10392 27.1323C4.50956 27.5391 5.17557 27.5298 5.59167 27.1137L29.8162 3.62368C30.2323 3.20874 30.2405 2.54157 29.8348 2.13593H29.836Z" fill="#FFD088"/>
</g>
<g id="&#239;&#167;&#143;&#226;&#145;&#165;&#234;&#189;&#140;&#231;&#148;&#177;&#209;&#136;? ?&#206;&#186;&#235;&#160;&#144; &#239;&#167;&#158;&#234;&#179;&#184;&#234;&#182;&#151;&#229;&#170;&#155;&#234;&#179;&#185;&#236;&#130;&#142; 2">
<path id="Vector_2" d="M45.1115 30.9999H1.88847C1.39766 30.9999 1 31.4475 1 31.9999C1 32.5524 1.39766 32.9999 1.88847 32.9999H45.1115C45.6023 32.9999 46 32.5524 46 31.9999C46 31.4475 45.6023 30.9999 45.1115 30.9999Z" fill="#C4C4C4"/>
</g>
<path id="Rectangle 34626383" d="M3.16406 24.5L5.66384 27L1.22442 28.8891L3.16406 24.5Z" fill="#FFD088"/>
<path id="Vector 797 (Stroke)" fill-rule="evenodd" clip-rule="evenodd" d="M43.6897 16.2904C44.0896 16.6913 44.105 17.3576 43.7241 17.7786L37.7816 24.3466C36.9934 25.2178 35.6732 25.2178 34.8851 24.3466L32.2759 21.4628C31.895 21.0418 31.9104 20.3755 32.3103 19.9746C32.7103 19.5737 33.3433 19.5899 33.7241 20.0109L36.3333 22.8947L42.2759 16.3267C42.6567 15.9057 43.2897 15.8895 43.6897 16.2904Z" fill="#848484"/>
<path id="Vector 797 (Stroke)_2" fill-rule="evenodd" clip-rule="evenodd" d="M43.6897 8.29038C44.0896 8.69132 44.105 9.35761 43.7241 9.77859L37.7816 16.3466C36.9934 17.2178 35.6732 17.2178 34.8851 16.3466L32.2759 13.4628C31.895 13.0418 31.9104 12.3755 32.3103 11.9746C32.7103 11.5737 33.3433 11.5899 33.7241 12.0109L36.3333 14.8947L42.2759 8.32668C42.6567 7.9057 43.2897 7.88945 43.6897 8.29038Z" fill="#E2E2E2"/>
</g>
</svg>
