<svg width="22" height="23" viewBox="0 0 22 23" fill="none" xmlns="http://www.w3.org/2000/svg">
<path d="M11 0C4.93207 0 0 4.49606 0 10.057C0 14.1685 1.7337 16.1208 4.125 17.8955V22.717C4.125 22.9536 4.39402 23.0719 4.57337 22.9536L8.75815 19.8773L8.84783 19.9069C9.53533 20.0252 10.2826 20.114 11 20.114C17.0679 20.114 22 15.6179 22 10.057C22 4.49606 17.0679 0 11 0ZM7.32337 12.6304C8.39946 12.6304 9.32609 11.9796 9.59511 11.0035H11.1793C10.7908 12.8966 9.2962 14.1389 7.29348 14.1389C4.99185 14.1389 3.13859 12.4233 3.13859 10.057C3.13859 7.69063 4.96196 5.97503 7.29348 5.97503C9.2962 5.97503 10.8207 7.24694 11.1793 9.1696H9.59511C9.35598 8.13433 8.39946 7.454 7.29348 7.454C5.73913 7.454 4.69293 8.54844 4.69293 10.0274C4.72283 11.536 5.88859 12.6304 7.32337 12.6304ZM17.8152 13.991H16.3505V10.7373C16.3505 9.99782 15.9022 9.58371 15.2147 9.58371C14.4674 9.58371 13.9592 10.057 13.9592 10.9739V13.991H12.4946V6.00461H13.9592V8.99213C14.3179 8.4597 14.8859 8.19348 15.6332 8.19348C16.2609 8.19348 16.769 8.40054 17.1576 8.81465C17.5761 9.22876 17.7554 9.79077 17.7554 10.5303V13.991H17.8152Z" fill="white"/>
</svg>
