<svg width="48" height="48" viewBox="0 0 48 48" fill="none" xmlns="http://www.w3.org/2000/svg">
<g id="icon">
<g id="&#236;&#131;&#129;&#235;&#139;&#180;&#236;&#130;&#172;">
<circle id="Ellipse 454" cx="24.5" cy="24.5" r="16.5" fill="#FFE7D3"/>
<path id="Ellipse 455" d="M44 21.5C44 10.7304 35.2696 2 24.5 2C13.7304 2 5 10.7304 5 21.5" stroke="url(#paint0_linear_1446_5306)" stroke-width="2"/>
<path id="Vector 839" d="M14.6571 21.3882C24.5955 21.3882 28.0739 15.4682 28.5708 12.5082C28.9683 20.448 36.3559 23.4777 40 24V19.2988C38.4099 9.26959 31.3867 7.11054 28.0739 7.28466C14.1602 5.19524 9.35662 15.12 8.69404 20.3435C6.54073 20.6918 4.71869 21.3882 14.6571 21.3882Z" fill="#5E3725"/>
<path id="Rectangle 34626354" d="M47 25C47 21.134 43.866 18 40 18H39V32H40C43.866 32 47 28.866 47 25Z" fill="#5A5A5A"/>
<circle id="Ellipse 456" cx="18" cy="25" r="1" fill="#2C2C2C"/>
<circle id="Ellipse 457" cx="29" cy="25" r="1" fill="#2C2C2C"/>
<path id="Vector 840" d="M23 25.5V26.5C23 27.0523 23.4477 27.5 24 27.5H25" stroke="#2C2C2C" stroke-linecap="round"/>
<path id="Vector 842" d="M14.2017 42.9545C14.7289 43.1192 15.2897 42.8254 15.4545 42.2983C15.6192 41.7711 15.3254 41.2103 14.7983 41.0455L14.2017 42.9545ZM5.00138 30.0526C5.09173 31.7692 5.65168 34.4201 7.03776 36.9221C8.43204 39.4389 10.6959 41.8589 14.2017 42.9545L14.7983 41.0455C11.9041 40.1411 10.0013 38.1444 8.78724 35.9529C7.56498 33.7466 7.07494 31.3975 6.99862 29.9474L5.00138 30.0526Z" fill="#E1E1E1"/>
<path id="Rectangle 34626353" d="M2 25C2 21.134 5.13401 18 9 18H10V32H9C5.13401 32 2 28.866 2 25Z" fill="#5A5A5A"/>
<path id="Vector 843" d="M28.8611 31H19C18.4477 31 17.9865 31.4567 18.1481 31.9849C18.5793 33.3946 20.0799 35 24.2609 35C27.474 35 29.0381 33.4198 29.6673 32.084C29.9245 31.5379 29.4647 31 28.8611 31Z" fill="#FF8381"/>
<rect id="Rectangle 34626360" x="28" y="27" width="4" height="2" rx="1" fill="#FDCBB8"/>
<rect id="Rectangle 34626361" x="15" y="27" width="4" height="2" rx="1" fill="#FDCBB8"/>
<circle id="Ellipse 470" cx="15.5" cy="42.5" r="2" fill="#E1E1E1" stroke="#E1E1E1"/>
</g>
</g>
<defs>
<linearGradient id="paint0_linear_1446_5306" x1="24.5" y1="21.5" x2="24.5" y2="2" gradientUnits="userSpaceOnUse">
<stop stop-color="#A8A8A8"/>
<stop offset="1" stop-color="#5A5A5A"/>
</linearGradient>
</defs>
</svg>
