<svg width="108" height="20" viewBox="0 0 108 20" fill="none" xmlns="http://www.w3.org/2000/svg">
<g clip-path="url(#clip0_6_93)">
<mask id="mask0_6_93" style="mask-type:luminance" maskUnits="userSpaceOnUse" x="0" y="0" width="108" height="20">
<path d="M108 0H0V20H108V0Z" fill="white"/>
</mask>
<g mask="url(#mask0_6_93)">
<path d="M9.5717 0.711848C9.76604 0.388938 10.2342 0.388938 10.4285 0.711848L13.1825 5.288C13.2523 5.40401 13.3662 5.48674 13.4981 5.51729L18.7013 6.72236C19.0684 6.80739 19.2131 7.25263 18.966 7.53723L15.4649 11.5705C15.3761 11.6728 15.3326 11.8066 15.3443 11.9415L15.8061 17.2625C15.8387 17.6379 15.46 17.9131 15.1129 17.7661L10.1951 15.6826C10.0705 15.6298 9.92972 15.6298 9.80507 15.6826L4.88726 17.7661C4.54024 17.9131 4.1615 17.6379 4.19408 17.2625L4.65587 11.9415C4.66758 11.8066 4.62408 11.6728 4.53532 11.5705L1.03417 7.53723C0.787122 7.25263 0.931787 6.80739 1.29894 6.72236L6.50214 5.51729C6.63404 5.48674 6.74791 5.40401 6.81773 5.288L9.5717 0.711848Z" fill="#F6A000"/>
<path d="M31.5717 0.711848C31.766 0.388938 32.2342 0.388938 32.4285 0.711848L35.1825 5.288C35.2523 5.40401 35.3662 5.48674 35.4981 5.51729L40.7013 6.72236C41.0684 6.80739 41.2131 7.25263 40.966 7.53723L37.4649 11.5705C37.3761 11.6728 37.3326 11.8066 37.3443 11.9415L37.8061 17.2625C37.8387 17.6379 37.46 17.9131 37.1129 17.7661L32.1951 15.6826C32.0705 15.6298 31.9297 15.6298 31.8051 15.6826L26.8873 17.7661C26.5402 17.9131 26.1615 17.6379 26.1941 17.2625L26.6559 11.9415C26.6676 11.8066 26.6241 11.6728 26.5353 11.5705L23.0342 7.53723C22.7871 7.25263 22.9318 6.80739 23.2989 6.72236L28.5021 5.51729C28.634 5.48674 28.7479 5.40401 28.8177 5.288L31.5717 0.711848Z" fill="#F6A000"/>
<path d="M53.5717 0.711848C53.766 0.388938 54.2342 0.388938 54.4285 0.711848L57.1825 5.288C57.2523 5.40401 57.3662 5.48674 57.4981 5.51729L62.7013 6.72236C63.0684 6.80739 63.2131 7.25263 62.966 7.53723L59.4649 11.5705C59.3761 11.6728 59.3326 11.8066 59.3443 11.9415L59.8061 17.2625C59.8387 17.6379 59.46 17.9131 59.1129 17.7661L54.1951 15.6826C54.0705 15.6298 53.9297 15.6298 53.8051 15.6826L48.8873 17.7661C48.5402 17.9131 48.1615 17.6379 48.1941 17.2625L48.6559 11.9415C48.6676 11.8066 48.6241 11.6728 48.5353 11.5705L45.0342 7.53723C44.7871 7.25263 44.9318 6.80739 45.2989 6.72236L50.5021 5.51729C50.634 5.48674 50.7479 5.40401 50.8177 5.288L53.5717 0.711848Z" fill="#F6A000"/>
<path d="M75.5717 0.711848C75.766 0.388938 76.2342 0.388938 76.4285 0.711848L79.1825 5.288C79.2523 5.40401 79.3662 5.48674 79.4981 5.51729L84.7013 6.72236C85.0684 6.80739 85.2131 7.25263 84.966 7.53723L81.4649 11.5705C81.3761 11.6728 81.3326 11.8066 81.3443 11.9415L81.8061 17.2625C81.8387 17.6379 81.46 17.9131 81.1129 17.7661L76.1951 15.6826C76.0705 15.6298 75.9297 15.6298 75.8051 15.6826L70.8873 17.7661C70.5402 17.9131 70.1615 17.6379 70.1941 17.2625L70.6559 11.9415C70.6676 11.8066 70.6241 11.6728 70.5353 11.5705L67.0342 7.53723C66.7871 7.25263 66.9318 6.80739 67.2989 6.72236L72.5021 5.51729C72.634 5.48674 72.7479 5.40401 72.8177 5.288L75.5717 0.711848Z" fill="#F6A000"/>
<path d="M97.5717 0.711848C97.766 0.388938 98.2342 0.388938 98.4285 0.711848L101.182 5.288C101.252 5.40401 101.366 5.48674 101.498 5.51729L106.701 6.72236C107.068 6.80739 107.213 7.25263 106.966 7.53723L103.465 11.5705C103.376 11.6728 103.333 11.8066 103.344 11.9415L103.806 17.2625C103.839 17.6379 103.46 17.9131 103.113 17.7661L98.1951 15.6826C98.0705 15.6298 97.9297 15.6298 97.8051 15.6826L92.8873 17.7661C92.5402 17.9131 92.1615 17.6379 92.1941 17.2625L92.6559 11.9415C92.6676 11.8066 92.6241 11.6728 92.5353 11.5705L89.0342 7.53723C88.7871 7.25263 88.9318 6.80739 89.2989 6.72236L94.5021 5.51729C94.634 5.48674 94.7479 5.40401 94.8177 5.288L97.5717 0.711848Z" fill="#F6A000"/>
</g>
</g>
<defs>
<clipPath id="clip0_6_93">
<rect width="108" height="20" fill="white"/>
</clipPath>
</defs>
</svg>
