<svg width="18" height="18" viewBox="0 0 18 18" fill="none" xmlns="http://www.w3.org/2000/svg">
<g id="Icon_mail">
<path id="Vector" d="M1.6875 2C0.755859 2 0 2.75586 0 3.6875C0 4.21836 0.249609 4.71758 0.675 5.0375L8.325 10.775C8.72578 11.0738 9.27422 11.0738 9.675 10.775L17.325 5.0375C17.7504 4.71758 18 4.21836 18 3.6875C18 2.75586 17.2441 2 16.3125 2H1.6875ZM0 5.9375V13.25C0 14.491 1.00898 15.5 2.25 15.5H15.75C16.991 15.5 18 14.491 18 13.25V5.9375L10.35 11.675C9.54844 12.2762 8.45156 12.2762 7.65 11.675L0 5.9375Z" fill="#757575"/>
</g>
</svg>
