<svg width="23" height="16" viewBox="0 0 23 16" fill="none" xmlns="http://www.w3.org/2000/svg">
<path d="M22.5195 2.50346C22.2549 1.51804 21.4756 0.741958 20.486 0.478583C18.6924 0 11.5 0 11.5 0C11.5 0 4.30775 0 2.51406 0.478583C1.5245 0.742 0.745129 1.51804 0.480609 2.50346C0 4.28958 0 8.01617 0 8.01617C0 8.01617 0 11.7428 0.480609 13.5289C0.745129 14.5143 1.5245 15.258 2.51406 15.5214C4.30775 16 11.5 16 11.5 16C11.5 16 18.6923 16 20.486 15.5214C21.4756 15.258 22.2549 14.5143 22.5195 13.5289C23.0001 11.7428 23.0001 8.01617 23.0001 8.01617C23.0001 8.01617 23.0001 4.28958 22.5195 2.50346ZM9.14774 11.3996V4.63271L15.1591 8.01625L9.14774 11.3996Z" fill="white"/>
</svg>
