<svg width="23" height="23" viewBox="0 0 23 23" fill="none" xmlns="http://www.w3.org/2000/svg">
<path d="M11.5026 5.60309C8.23923 5.60309 5.60699 8.23591 5.60699 11.5C5.60699 14.7641 8.23923 17.3969 11.5026 17.3969C14.766 17.3969 17.3982 14.7641 17.3982 11.5C17.3982 8.23591 14.766 5.60309 11.5026 5.60309ZM11.5026 15.3338C9.39372 15.3338 7.66968 13.6145 7.66968 11.5C7.66968 9.38553 9.38859 7.66624 11.5026 7.66624C13.6166 7.66624 15.3355 9.38553 15.3355 11.5C15.3355 13.6145 13.6115 15.3338 11.5026 15.3338ZM19.0145 5.36188C19.0145 6.12658 18.3988 6.73731 17.6394 6.73731C16.8748 6.73731 16.2642 6.12144 16.2642 5.36188C16.2642 4.60231 16.88 3.98644 17.6394 3.98644C18.3988 3.98644 19.0145 4.60231 19.0145 5.36188ZM22.9192 6.75784C22.832 4.91537 22.4113 3.28333 21.0618 1.93869C19.7175 0.594053 18.0858 0.173212 16.2437 0.0808323C14.3452 -0.0269441 8.65485 -0.0269441 6.75635 0.0808323C4.91942 0.16808 3.28774 0.588921 1.93827 1.93356C0.588791 3.2782 0.173174 4.91024 0.0808145 6.75271C-0.0269382 8.65162 -0.0269382 14.3432 0.0808145 16.2422C0.168043 18.0846 0.588791 19.7167 1.93827 21.0613C3.28774 22.4059 4.91429 22.8268 6.75635 22.9192C8.65485 23.0269 14.3452 23.0269 16.2437 22.9192C18.0858 22.8319 19.7175 22.4111 21.0618 21.0613C22.4061 19.7167 22.8269 18.0846 22.9192 16.2422C23.027 14.3432 23.027 8.65676 22.9192 6.75784ZM20.4666 18.2796C20.0664 19.2856 19.2916 20.0605 18.2808 20.466C16.7671 21.0664 13.1753 20.9279 11.5026 20.9279C9.82986 20.9279 6.23298 21.0613 4.72444 20.466C3.71875 20.0657 2.94396 19.2907 2.5386 18.2796C1.93827 16.7656 2.0768 13.1731 2.0768 11.5C2.0768 9.8269 1.9434 6.22922 2.5386 4.72035C2.93883 3.71444 3.71362 2.93947 4.72444 2.53403C6.23811 1.93356 9.82986 2.07213 11.5026 2.07213C13.1753 2.07213 16.7722 1.93869 18.2808 2.53403C19.2864 2.93434 20.0612 3.7093 20.4666 4.72035C21.0669 6.23435 20.9284 9.8269 20.9284 11.5C20.9284 13.1731 21.0669 16.7708 20.4666 18.2796Z" fill="white"/>
</svg>
