<svg width="42" height="43" viewBox="0 0 42 43" fill="none" xmlns="http://www.w3.org/2000/svg">
<rect y="0.5" width="42" height="42" rx="10" fill="#EAFCF1"/>
<path d="M21.0524 28.7547H21.0215L21.0192 28.7592C19.9605 28.7427 19.1077 27.8798 19.1077 26.8171C19.1077 25.7441 19.977 24.8747 21.05 24.8747C21.3619 24.8747 21.6557 24.9495 21.9179 25.0811C21.9198 25.0823 21.9213 25.0832 21.9223 25.0837C21.9235 25.0844 21.9246 25.0849 21.9256 25.0855C21.9273 25.0863 21.9288 25.087 21.93 25.0875L21.9351 25.0895L21.9367 25.0901L21.9373 25.0903L21.9375 25.0903L21.9376 25.0904L21.9376 25.0904L21.9377 25.0904L21.9377 25.0904L21.9535 25.043L21.9377 25.0904L22.0035 25.1123V25.043V21.702H25.3635C25.1239 22.0349 24.9823 22.4443 24.9823 22.8864C24.9823 24.0146 25.8965 24.9287 27.0247 24.9287C28.1529 24.9287 29.067 24.0146 29.067 22.8864C29.067 22.4439 28.9252 22.0364 28.6855 21.702H32.2312V31.9274H28.7648C28.9594 31.616 29.0717 31.2479 29.0717 30.8534C29.0717 29.7251 28.1576 28.811 27.0294 28.811C25.9012 28.811 24.987 29.7251 24.987 30.8534C24.987 31.2477 25.0973 31.6159 25.2917 31.9274H22.0058V28.5865V28.4658L21.9262 28.5453L21.9239 28.5465C21.6607 28.6792 21.3657 28.7547 21.0524 28.7547Z" fill="#DBDBDB" stroke="#F1F1F1" stroke-width="0.1"/>
<path d="M19.9476 16.3398H19.9785L19.9808 16.3442C21.0395 16.3278 21.8923 15.4648 21.8923 14.4021C21.8923 13.3292 21.023 12.4598 19.95 12.4598C19.6381 12.4598 19.3443 12.5346 19.0821 12.6662C19.0802 12.6674 19.0787 12.6683 19.0777 12.6688C19.0765 12.6694 19.0754 12.67 19.0744 12.6705C19.0727 12.6714 19.0712 12.672 19.07 12.6725L19.0649 12.6746L19.0633 12.6752L19.0627 12.6754L19.0625 12.6754L19.0624 12.6755L19.0624 12.6755L19.0623 12.6755L19.0623 12.6755L19.0465 12.628L19.0623 12.6755L18.9965 12.6974V12.628V9.28709L15.6365 9.28709C15.8761 9.62 16.0177 10.0294 16.0177 10.4714C16.0177 11.5997 15.1035 12.5138 13.9753 12.5138C12.8471 12.5138 11.933 11.5997 11.933 10.4714C11.933 10.029 12.0748 9.62152 12.3145 9.28709H8.76875L8.76875 19.5125H12.2352C12.0406 19.2011 11.9283 18.833 11.9283 18.4384C11.9283 17.3102 12.8424 16.3961 13.9706 16.3961C15.0988 16.3961 16.013 17.3102 16.013 18.4384C16.013 18.8328 15.9027 19.2009 15.7083 19.5125H18.9942V16.1715V16.0508L19.0738 16.1304L19.0761 16.1316C19.3393 16.2643 19.6343 16.3398 19.9476 16.3398Z" fill="#DBDBDB" stroke="#F1F1F1" stroke-width="0.1"/>
<path d="M29.1085 20.2289C29.1085 19.9074 29.0311 19.6047 28.895 19.3348C28.895 19.3325 28.8926 19.3278 28.8903 19.3254L32.2813 19.3254L32.2813 15.8969C31.9621 16.1175 31.5749 16.2442 31.1572 16.2442C30.0566 16.2442 29.1649 15.3525 29.1649 14.2519C29.1649 13.1513 30.0566 12.2595 31.1572 12.2595C31.5749 12.2595 31.9621 12.3886 32.2813 12.6092L32.2812 9L21.9558 9L21.9558 12.696C22.2961 12.4262 22.7232 12.2642 23.1902 12.2642C24.2908 12.2642 25.1825 13.156 25.1825 14.2566C25.1825 15.3572 24.2908 16.2489 23.1902 16.2489C22.7232 16.2489 22.2938 16.087 21.9558 15.8171L21.9558 19.3278L25.3468 19.3278C25.3468 19.3278 25.3445 19.3348 25.3421 19.3371C25.206 19.607 25.1286 19.9097 25.1286 20.2312C25.1286 21.3318 26.0203 22.2236 27.1209 22.2236C28.2215 22.2236 29.1132 21.3318 29.1132 20.2312L29.1085 20.2289Z" fill="#AAAAAA"/>
<path d="M12.26 31.9751C12.0769 32.2755 11.969 32.6298 11.969 33.0077C11.969 34.1083 12.8607 35 13.9613 35C15.0619 35 15.9537 34.1083 15.9537 33.0077C15.9537 32.6298 15.8457 32.2778 15.6627 31.9751H19.2812V28.5889C19.0114 28.725 18.7087 28.8024 18.3872 28.8024C17.2866 28.8024 16.3948 27.9107 16.3948 26.8101C16.3948 25.7095 17.2866 24.8177 18.3872 24.8177C18.7087 24.8177 19.0114 24.8952 19.2812 25.0313V21.645H8.95584L8.95584 31.9751H12.2623H12.26Z" fill="#AAAAAA"/>
</svg>
