<svg width="80" height="24" viewBox="0 0 80 24" fill="none" xmlns="http://www.w3.org/2000/svg">
<g clip-path="url(#clip0_78_5)">
<mask id="mask0_78_5" style="mask-type:luminance" maskUnits="userSpaceOnUse" x="0" y="0" width="80" height="24">
<path d="M80 0H0V24H80V0Z" fill="white"/>
</mask>
<g mask="url(#mask0_78_5)">
<path d="M14.1186 2.91426C14.1653 2.91426 14.209 2.90772 14.262 2.89791C14.5551 2.84885 14.7359 2.65915 14.8357 2.51197C15.0197 2.23724 15.0883 1.86439 15.0228 1.48826C14.9106 0.853756 14.4304 0.379512 13.9065 0.386053C13.8629 0.386053 13.8224 0.389324 13.7787 0.399136C13.4887 0.448195 13.3079 0.637893 13.205 0.788343C13.0179 1.06635 12.9524 1.4392 13.0179 1.81205C13.1301 2.44983 13.6041 2.92407 14.1217 2.91426H14.1186Z" fill="white"/>
<path d="M14.6576 5.41906C14.5953 5.15087 14.4144 4.91211 14.2741 4.91211C14.2336 4.91211 14.1837 4.92519 14.1432 4.94154C14.0153 4.99715 13.875 5.17703 13.7659 5.42887C13.0113 7.12961 12.4501 8.87286 12.0946 10.6128C11.9574 11.2997 11.92 12.0029 11.9886 12.6995C12.0946 13.6971 12.6371 14.917 13.8438 15.3455C14.0371 15.4142 14.2273 15.4501 14.4113 15.4501H14.4331C15.038 15.4403 15.5775 15.0217 15.8394 14.3577C16.1075 13.6742 16.1512 12.7846 15.9703 11.7151C15.7334 10.3054 15.2812 8.13042 14.6576 5.42233V5.41906Z" fill="white"/>
<path d="M36.3003 5.38358C35.9262 4.75562 35.3337 4.39258 34.6821 4.39258C34.3515 4.39585 34.021 4.49724 33.6874 4.69348L33.625 4.72618C33.4348 4.82103 33.2446 4.86682 33.0264 4.87009C32.9578 4.87009 32.8892 4.86355 32.8736 4.86028C32.78 4.85374 32.6865 4.8472 32.5431 4.8472C31.8696 4.85701 31.246 5.08268 30.6411 5.5373C28.6268 7.04507 26.8433 9.77606 27.3983 12.4809C27.7818 14.3909 29.0758 15.5324 30.8593 15.5324H30.9186C31.6014 15.5226 32.3061 15.346 33.0014 15.0124C33.1792 14.9175 33.3631 14.8685 33.5627 14.8652C33.887 14.8652 34.1988 15.0091 34.4108 15.2609C34.6446 15.5324 34.7413 15.8954 34.6883 16.3206C34.5449 17.1906 34.046 19.3165 32.5431 20.3239C31.8477 20.7981 31.1493 21.3214 30.903 22.0377C30.7751 22.4138 30.8063 22.754 31.0028 23.0778C31.3052 23.5716 31.9195 23.9183 32.6086 23.9805C32.7052 23.9903 32.8019 23.9936 32.8985 23.9936H32.9453C34.5854 23.9707 35.9262 22.6395 36.581 21.8513C37.3106 20.9748 37.8905 19.8562 38.3084 18.5316C38.96 16.4743 39.0972 14.4335 38.7293 12.2912C38.299 9.70738 37.4821 7.37868 36.2972 5.37377L36.3003 5.38358ZM31.6763 13.1088C31.5203 13.1873 31.3551 13.2266 31.1711 13.2266C30.5818 13.2266 30.0642 12.7654 29.9956 12.1931C29.6059 10.0835 30.1391 7.93796 31.4299 6.44L31.4705 6.39748C31.6825 6.18816 31.96 6.07369 32.25 6.06715H32.2687H32.2718C32.7114 6.06715 33.1137 6.32226 33.2914 6.7082C33.6313 7.36232 33.8184 8.03281 33.8464 8.69675C33.9088 10.3092 33.2509 12.3795 31.6731 13.1121L31.6763 13.1088Z" fill="white"/>
<path d="M9.40722 4.69633C8.68072 4.03566 7.57069 3.58758 6.51678 3.52544C6.40453 3.5189 6.29228 3.51562 6.18315 3.51562H6.11456C4.84862 3.53198 3.79472 3.9866 2.86866 4.91873L2.78135 4.99069L2.74394 5.01358C2.55062 5.14114 2.33859 5.20655 2.10162 5.20982C1.91765 5.20982 1.73369 5.15749 1.57778 5.06918C1.57778 5.06918 0.957289 4.77809 0.657955 5.87376C0.00939947 8.85659 -0.158976 11.5843 0.15283 14.1976C0.277552 15.3194 0.433455 16.5393 0.648601 18.0373C0.81074 19.2671 1.12255 20.0684 1.59649 20.4837C1.8397 20.6931 2.18892 20.8108 2.55373 20.8108H2.57556C2.86242 20.8075 3.12746 20.729 3.33948 20.5917C3.77913 20.3039 3.91321 19.9506 3.50474 18.7241C3.33013 18.2204 3.25218 17.6088 3.28024 16.9122C3.29271 16.2482 3.81031 15.7217 4.4651 15.7119H4.59606C6.64774 15.6857 8.14753 14.3807 9.04553 13.2916C10.4331 11.6105 11.1565 9.65463 11.0317 7.92773C10.9413 6.66526 10.3956 5.5794 9.41346 4.6996L9.40722 4.69633ZM7.05309 9.86068C6.88472 10.3284 6.44819 11.1166 5.37869 11.1264L4.92346 11.1166C4.8611 11.1166 4.80497 11.1133 4.74885 11.1068H4.70831C4.6553 11.1003 4.6023 11.097 4.53994 11.0904C3.13057 10.8942 2.91855 9.61211 2.88737 9.21309C2.76888 6.60966 4.23437 5.9588 5.11678 5.80181C5.20096 5.78872 5.28515 5.77891 5.38181 5.77891C5.81834 5.77891 6.22057 5.97188 6.51367 6.32511C7.39608 7.39461 7.37425 8.85005 7.05621 9.86068H7.05309Z" fill="white"/>
<path d="M18.9542 -0.000294643C18.5925 -0.000294643 18.2401 0.110907 17.9346 0.32677C17.2143 0.830449 17.0179 1.47477 17.2517 2.54427L17.3421 2.93675C17.6259 4.15016 17.919 5.40608 17.9907 6.73724C18.1716 9.79202 18.3243 11.967 18.4459 13.2C18.6704 15.3161 19.1132 15.689 19.1974 15.7381C19.241 15.7642 19.266 15.7708 19.2785 15.774C19.372 15.7282 19.5996 15.4208 19.7181 14.9629C19.8927 14.2859 20.0299 13.478 20.1203 12.5688C20.4134 9.56962 20.6754 6.67182 20.8999 3.95719L20.9061 3.88196C20.9903 2.91385 21.0682 2.00134 20.7533 1.21966C20.4446 0.487032 19.7212 -0.00683594 18.9511 -0.00683594L18.9542 -0.000294643Z" fill="white"/>
<path d="M24.1153 -0.000294643C23.7536 -0.000294643 23.4013 0.110907 23.0957 0.32677C22.3754 0.830449 22.179 1.47477 22.4129 2.54427L22.5033 2.93675C22.787 4.15016 23.0801 5.40608 23.1518 6.73724C23.3327 9.79202 23.4855 11.967 23.6071 13.2C23.8316 15.3161 24.2743 15.689 24.3554 15.7381C24.3991 15.7642 24.424 15.7708 24.4365 15.774C24.53 15.7282 24.7576 15.4208 24.8761 14.9629C25.0507 14.2859 25.1879 13.478 25.2784 12.5688C25.5715 9.56962 25.8334 6.67182 26.0579 3.95719L26.0641 3.88196C26.1483 2.91385 26.2262 2.00134 25.9113 1.21966C25.6026 0.487032 24.8792 -0.00683594 24.1091 -0.00683594L24.1153 -0.000294643Z" fill="white"/>
<path d="M79.7194 7.32948C79.2049 5.4325 78.073 4.40552 76.2646 4.19293C75.9372 4.15368 75.6191 4.14714 75.3229 4.17657C74.5528 4.2518 73.8855 4.55924 73.2837 5.11852C73.1559 5.22972 73.0031 5.29841 72.8441 5.31476C72.7037 5.32784 72.4948 5.30822 72.2547 5.11852L72.2049 5.06946C72.1643 5.02367 72.1207 4.98442 72.0614 4.92555C72.0147 4.87976 71.9679 4.8307 71.9461 4.80781C71.363 4.24526 70.6489 3.99015 69.8757 4.06537C69.3768 4.11443 68.8623 4.30413 68.3946 4.61484C67.4997 5.21991 66.8075 6.05065 66.3367 7.08418C66.3367 7.08418 66.0935 7.62711 65.9126 7.928C65.897 7.95417 65.8783 7.98361 65.8627 8.0065C65.8565 8.01631 65.8503 8.02612 65.844 8.03594C64.9554 9.31803 64.7932 7.86259 64.762 7.26079C64.7527 7.17903 64.7558 7.12343 64.7558 7.12343V7.09399C64.762 6.33847 64.5718 6.12915 64.4627 6.07028C63.5024 5.65818 63.1562 9.50773 63.1157 10.0376C63.1126 10.2469 63.1064 10.4529 63.1095 10.6623C63.1157 11.009 63.1438 11.3491 63.1812 11.6827C63.2997 12.4971 63.6364 13.9558 64.575 14.9534C64.575 14.9534 64.5781 14.9599 64.5812 14.9632C65.1425 15.493 65.8097 15.7481 66.2244 14.623C66.2338 14.5936 66.2462 14.5641 66.2556 14.538L66.2899 14.4431C66.8231 13.0008 67.4062 11.4145 68.061 9.56987C68.1202 9.3998 68.1919 9.22972 68.273 9.05638C68.273 9.05638 68.9901 7.01877 69.7852 7.45376C69.8195 7.46684 69.8507 7.4832 69.8819 7.51263C69.8819 7.51263 69.8881 7.51263 69.8913 7.51917C70.0222 7.65 70.1126 7.94763 70.1158 8.51672C70.1158 8.52653 70.1158 8.53307 70.1158 8.54289C70.1189 8.58213 70.1251 8.61811 70.1251 8.65736C70.1251 8.8536 70.1095 9.05638 70.0939 9.25916C69.9817 10.224 69.9006 11.058 69.8476 11.7383C69.7915 12.3761 69.7977 12.9452 69.8663 13.4325C70.0129 14.4758 70.8173 15.1921 71.734 15.1038L71.787 15.0973C72.7193 14.9762 73.3305 14.1586 73.3429 13.0171C73.3461 12.4121 73.3928 11.3982 73.4178 10.852V10.8029C73.4365 10.4366 73.5768 10.0932 73.82 9.80863L73.8512 9.77265C74.0913 9.53062 74.3875 9.38344 74.7118 9.35401C75.1421 9.31149 75.5817 9.48156 75.8904 9.80863C76.196 10.1357 76.3456 10.587 76.2957 11.0547C76.2116 11.7776 76.1242 12.291 76.0151 12.6704C75.7283 13.6189 75.7594 14.3221 76.118 14.9435C76.4766 15.5617 77.0846 15.8953 77.7425 15.8299C78.3911 15.7677 78.9461 15.3393 79.2267 14.6852C79.367 14.3679 79.4918 13.9166 79.5946 13.3409C79.9906 10.9861 80.2307 9.17739 79.7318 7.34256L79.7194 7.32948Z" fill="white"/>
<path d="M49.0318 4.45761C48.6483 4.18942 48.2398 4.05859 47.7846 4.05859C46.2848 4.08149 44.5512 5.66775 43.4848 7.2442L43.4474 7.29326C43.2135 7.58435 42.9048 7.74134 42.5556 7.74461C42.3685 7.74461 42.1596 7.68901 41.9694 7.56146C41.6857 7.42736 41.5204 7.00218 41.2148 6.75034C41.1026 6.65876 40.9779 6.67511 40.8656 6.73071C40.8469 6.74052 40.5881 6.89424 40.4696 7.41755C40.2576 8.94494 40.2108 10.4789 40.3449 11.9866C40.401 12.6277 40.5257 13.2753 40.7128 13.9098C40.8469 14.3579 40.9935 14.8517 41.0402 14.9891L41.0589 15.0447L41.0808 15.1134C41.1494 15.3129 41.2055 15.483 41.2616 15.5647C41.3707 15.7086 41.4923 15.7773 41.6482 15.7773H41.6576C41.8977 15.774 42.1503 15.6007 42.2625 15.3718C42.4496 14.976 42.6242 14.5377 42.7926 14.0406C43.4068 12.124 44.3454 10.3284 45.5053 8.84355C45.8233 8.44453 46.6808 7.48623 47.8158 7.19841C48.9133 6.93022 49.4403 6.48214 49.5868 5.70046C49.6617 5.28182 49.4184 4.73562 49.0349 4.45761H49.0318Z" fill="white"/>
<path d="M61.6588 9.19051C61.4717 8.09811 61.0352 7.12673 60.3929 6.25674C59.6196 5.21013 58.6094 4.47751 57.4962 3.89206C57.1033 3.68601 56.6918 3.53556 56.2428 3.54864C55.9964 3.55518 55.7532 3.5977 55.51 3.65657C55.4632 3.66966 55.4134 3.68601 55.4071 3.74488C55.3978 3.8103 55.4383 3.843 55.4851 3.86917C55.6566 3.96402 55.8249 4.06541 55.9871 4.17988C56.0151 4.1995 56.0526 4.21258 56.0775 4.26491C56.0276 4.26491 55.9933 4.26491 55.9559 4.26491C55.6441 4.26491 55.3323 4.27146 55.0205 4.32052C53.6984 4.53311 52.4949 5.06295 51.4347 5.93294C50.1376 6.99917 49.2957 8.37939 49.1741 10.1128C49.0151 12.3172 49.8663 14.0605 51.5781 15.3033C52.3452 15.8626 53.2276 16.121 54.1537 16.2355C55.51 16.4023 56.8134 16.1439 58.0699 15.5879C59.0397 15.1594 59.8659 14.5249 60.5176 13.6484C61.4967 12.3271 61.9488 10.8553 61.6619 9.18724L61.6588 9.19051ZM59.5635 12.6803C59.0864 13.3671 58.4815 13.9035 57.7612 14.2731C56.3675 14.9861 54.9176 15.2576 53.3929 14.924C51.0013 14.4006 49.7728 12.2486 49.8071 10.1488C49.8258 8.93213 50.2935 7.91823 51.0107 6.99917C51.8868 5.87407 53.0312 5.22321 54.3407 4.85363C55.1358 4.62796 55.9372 4.58217 56.7479 4.68029C56.882 4.69664 57.0067 4.73589 57.1189 4.81111C57.2811 4.92231 57.4463 5.02698 57.6116 5.13818C58.4441 5.67129 59.1581 6.33523 59.6726 7.22158C60.0281 7.83646 60.2869 8.49059 60.4085 9.20686C60.6267 10.4988 60.2869 11.6435 59.5635 12.6868V12.6803Z" fill="white"/>
<path d="M56.4042 8.23197C56.2171 8.39223 56.2327 8.65388 56.4385 8.78471C56.5944 8.8861 56.7503 8.92208 56.8875 8.8861C57.0715 8.84031 57.1713 8.68658 57.1338 8.49688C57.0684 8.16982 56.6537 8.01611 56.4042 8.23197Z" fill="white"/>
<path d="M54.4745 8.84022C54.25 8.79116 54.0535 8.85657 53.8789 9.01356C53.8166 9.06917 53.776 9.13458 53.8072 9.22289C53.8259 9.27522 53.7947 9.30792 53.7698 9.34717C53.6575 9.5336 53.5422 9.72329 53.4299 9.91299C53.2117 10.227 53.0215 10.5606 52.8905 10.9236C52.8125 11.1362 52.7658 11.3553 52.7876 11.5876C52.8406 12.1305 53.2647 12.4445 53.7698 12.3169C53.8914 12.2875 54.0068 12.2384 54.1128 12.173C54.4932 11.9408 54.8143 11.6366 55.07 11.2572C55.2633 10.9727 55.3943 10.6554 55.4317 10.3055C55.5065 9.65134 55.0638 8.97432 54.4713 8.84022H54.4745Z" fill="white"/>
<path d="M54.0566 6.73415C53.9101 6.63603 53.695 6.68836 53.5983 6.84862C53.5141 6.98926 53.5391 7.1626 53.6607 7.24437C53.7979 7.33922 53.9849 7.25091 54.1252 7.02197C54.1938 6.91076 54.172 6.80937 54.0598 6.73088L54.0566 6.73415Z" fill="white"/>
<path d="M60.0198 12.52C60.0697 13.112 59.8576 13.7204 59.2559 14.1325C59.4336 14.1783 59.5708 14.3352 59.5957 14.5446C59.6176 14.7833 59.6176 15.0253 59.5926 15.3034C59.5677 15.65 59.6674 15.9084 59.7205 15.9444C59.7205 15.9444 59.7641 15.9444 59.8701 15.879C60.6559 15.3851 61.2857 13.5993 61.4977 12.0948C61.5383 11.807 61.5601 11.5225 61.5757 11.2412C61.108 11.6599 60.581 12.0981 60.0167 12.52H60.0198Z" fill="white"/>
</g>
</g>
<defs>
<clipPath id="clip0_78_5">
<rect width="80" height="24" fill="white"/>
</clipPath>
</defs>
</svg>
