<svg width="29" height="20" viewBox="0 0 29 20" fill="none" xmlns="http://www.w3.org/2000/svg">
<path d="M10.1086 4.07265C8.84305 1.95985 6.10436 1.27303 3.99157 2.53858C1.87877 3.80414 1.19194 6.54284 2.45749 8.65564L6.81331 15.9276C8.07885 18.0404 10.8175 18.7272 12.9303 17.4617C15.0431 16.1961 15.73 13.4574 14.4644 11.3446L10.1086 4.07265Z" fill="#D8EED9"/>
<path d="M2.45746 8.65565C1.19191 6.54285 1.87874 3.80414 3.99154 2.53858C6.10433 1.27303 8.84302 1.95985 10.1086 4.07266L10.9442 5.46763C12.2097 7.58043 11.5229 10.3191 9.41006 11.5847C7.29727 12.8503 4.55858 12.1634 3.29303 10.0506L2.45746 8.65565Z" fill="#F1FBF5"/>
<path d="M21.0642 14.3079C23.4433 15.2635 26.1467 14.1094 27.1023 11.7302C28.0579 9.35105 26.9038 6.64769 24.5247 5.69211C22.1455 4.73653 19.4421 5.89059 18.4866 8.26977C17.531 10.6489 18.685 13.3523 21.0642 14.3079Z" fill="#D8EED9"/>
<path d="M27.3501 11.1147L18.7344 7.6543L18.24 8.88512L26.8557 12.3456L27.3501 11.1147Z" fill="#2AAD5C"/>
</svg>
