<svg width="23" height="22" viewBox="0 0 23 22" fill="none" xmlns="http://www.w3.org/2000/svg">
<path fill-rule="evenodd" clip-rule="evenodd" d="M19.8468 0.763184H3.05811C1.3746 0.763184 0 2.13778 0 3.82129V13.7833C0 15.4822 1.3746 16.8414 3.05811 16.8414H8.98899L11.0123 21.583C11.0123 21.583 11.1513 22 11.4911 22C11.8309 22 11.9699 21.583 11.9699 21.583L13.9932 16.8414H19.8623C21.5612 16.8414 22.9204 15.4668 22.9204 13.7833V3.82129C22.9049 2.13778 21.5458 0.763184 19.8468 0.763184ZM7.19737 9.56681C7.18192 11.3893 5.31308 11.4356 5.31308 11.4356C4.57172 11.4356 4.17015 10.9569 4.17015 10.9569V11.2812H2.79555V5.62835C2.87277 5.64379 4.17015 5.62835 4.17015 5.62835V7.79064C4.49449 7.23462 5.42119 7.25007 5.42119 7.25007C7.44449 7.4354 7.19737 9.56681 7.19737 9.56681ZM9.60679 7.41996V11.2966H8.26307V7.4663C8.26307 6.94117 7.61438 6.80216 7.61438 6.80216V5.44301C9.76124 5.53568 9.60679 7.41996 9.60679 7.41996ZM12.7885 11.4356C11.5529 11.4356 10.5335 10.509 10.5335 9.36602C10.5335 8.2231 11.5374 7.2964 12.7885 7.2964C14.0241 7.2964 15.0434 8.2231 15.0434 9.36602C15.0434 10.509 14.0395 11.4356 12.7885 11.4356ZM20.1403 11.4356C20.1403 11.4356 20.1557 13.3972 18.1633 13.3972H17.561V12.1307H17.9316C17.9316 12.1307 18.7657 12.2079 18.7657 10.9105C18.7657 10.9105 18.5958 11.4356 17.422 11.4356C17.422 11.4356 15.7539 11.3121 15.7539 9.69037V9.07257C15.7539 9.07257 15.7848 7.38907 17.6227 7.25007C17.6227 7.25007 18.3487 7.17284 18.7966 7.77519V7.35818H20.1557V11.4356H20.1403ZM13.6365 9.36597C13.6365 9.83506 13.2564 10.2153 12.7875 10.2153C12.3186 10.2153 11.9385 9.83506 11.9385 9.36597C11.9385 8.89688 12.3186 8.5166 12.7875 8.5166C13.2564 8.5166 13.6365 8.89688 13.6365 9.36597ZM4.2168 9.39697C4.2168 8.96457 4.57184 8.60938 5.00406 8.60938C5.43628 8.60938 5.79132 8.96457 5.79132 9.39697C5.79132 9.82938 5.43628 10.1846 5.00406 10.1846C4.57184 10.1846 4.2168 9.82938 4.2168 9.39697ZM18.842 9.36597C18.842 9.8267 18.4688 10.2002 18.0084 10.2002C17.548 10.2002 17.1748 9.8267 17.1748 9.36597C17.1748 8.90524 17.548 8.53174 18.0084 8.53174C18.4688 8.53174 18.842 8.90524 18.842 9.36597Z" fill="white"/>
</svg>
