<svg width="42" height="43" viewBox="0 0 42 43" fill="none" xmlns="http://www.w3.org/2000/svg">
<rect y="0.5" width="42" height="42" rx="10" fill="#EAFCF1"/>
<path d="M32.0744 16.0765H9.37305V17.4613H32.0744V16.0765Z" fill="#DCDDDD"/>
<path d="M9.47305 30.4965V17.5613H31.9744V30.4965C31.9744 31.2722 31.3465 31.9 30.5709 31.9H10.8765C10.1009 31.9 9.47305 31.2722 9.47305 30.4965Z" fill="#DBDBDB" stroke="#FAFAFA" stroke-width="0.2"/>
<path d="M32.9576 11H8.49414V16.2317H32.9576V11Z" fill="#C3C3C3"/>
<path d="M32.9576 15.0387H8.49414V16.2317H32.9576V15.0387Z" fill="#919191"/>
<path d="M25.7348 20.4621C25.7348 21.2869 25.0653 21.9565 24.2405 21.9565H17.2131C16.3883 21.9565 15.7188 21.2869 15.7188 20.4621C15.7188 19.6373 16.3883 18.9678 17.2131 18.9678H24.2405C25.0653 18.9678 25.7348 19.6373 25.7348 20.4621Z" fill="#EAFCF1"/>
</svg>
